<svg width="1622.9999999999998" height="773" xmlns="http://www.w3.org/2000/svg" style="vector-effect: non-scaling-stroke;" stroke="null">
 <g stroke="null">
  <title stroke="null">Layer 1</title>
  <g stroke="null" id="svg_3"/>
  <g stroke="null" id="svg_5"/>
  <g stroke="null" id="svg_6"/>
  <g stroke="null" id="svg_7"/>
  <g stroke="null" id="svg_8"/>
  <g stroke="null" id="svg_9"/>
  <g stroke="null" id="svg_10"/>
  <g stroke="null" id="svg_11"/>
  <g stroke="null" id="svg_12"/>
  <g stroke="null" id="svg_13"/>
  <g stroke="null" id="svg_14"/>
  <g stroke="null" id="svg_15"/>
  <g stroke="null" id="svg_16"/>
  <g stroke="null" id="svg_17"/>
  <g stroke="null" id="svg_18"/>
  <text font-weight="bold" stroke="#000" transform="matrix(9.21143 0 0 9.51586 -892.87 -1603.06)" xml:space="preserve" text-anchor="start" font-family="'Catamaran'" font-size="24" stroke-width="0" id="svg_22" y="215.02717" x="144.13656" fill="#000000">Monument</text>
  <g stroke="null">
   <g stroke="null">
    <path stroke="null" fill="#000000" d="m141.11953,268.98758l94.36702,0c1.28715,0 2.47332,-0.69885 3.05737,-1.80531c0.58218,-1.10646 0.4625,-2.43075 -0.31228,-3.42741l-47.16886,-60.98551c-0.65448,-0.83253 -1.66924,-1.32787 -2.75506,-1.32787c-1.08519,0 -2.11117,0.49534 -2.75444,1.32787l-47.17884,60.98551c-0.77478,0.99665 -0.89508,2.32094 -0.3129,3.42741c0.58405,1.10646 1.77147,1.80531 3.05799,1.80531z"/>
    <path stroke="null" fill="#000000" d="m332.20161,311.38643c-0.00125,-2.61397 -2.21464,-4.7326 -4.94477,-4.7326l-9.50309,0c-2.70582,0 -4.90924,2.08223 -4.94477,4.67352l-0.13713,10.17718l-11.62486,0l0,-10.11631c0,-2.61457 -2.21402,-4.73439 -4.94477,-4.73439l-9.6477,0c-2.73075,0 -4.94477,2.11982 -4.94477,4.73439l0,10.11631l-11.60366,0l0,-10.11631c0,-2.61457 -2.21402,-4.73439 -4.94477,-4.73439l-9.66265,0c-2.72888,0 -4.94228,2.11684 -4.94477,4.72962l-0.04613,43.36328l-22.78472,0l0,-72.92623c0,-1.97779 -1.66924,-3.5772 -3.73055,-3.5772l-70.95899,0c-2.06068,0 -3.72993,1.59942 -3.72993,3.5772l0,72.92683l-22.59398,0l0.02743,-43.35553c0.00062,-1.25566 -0.51985,-2.46119 -1.44672,-3.34923c-0.9275,-0.88803 -2.18597,-1.38755 -3.49743,-1.38755l-9.85651,0c-2.73075,0 -4.94477,2.11982 -4.94477,4.73439l0,10.11631l-11.60491,0l0,-10.11631c0,-2.61457 -2.21402,-4.73439 -4.94477,-4.73439l-9.64707,0c-2.73075,0 -4.94477,2.11982 -4.94477,4.73439l0,10.11631l-11.62423,0l0,-10.11631c0,-2.61457 -2.21402,-4.73439 -4.94477,-4.73439l-9.65268,0c-2.72888,0 -4.94228,2.11684 -4.94477,4.72962l-0.18699,181.3971l106.98794,0l0,-30.58168c0,-19.56779 16.57087,-35.42886 37.00319,-35.42886c20.4317,0 37.00319,15.86108 37.00319,35.42886l0,30.58108l106.98794,0l-0.07729,-181.39471zm-233.69699,78.53553c0,1.97838 -1.66987,3.57661 -3.73117,3.57661l-18.70262,0c-2.06068,0 -3.7293,-1.59822 -3.7293,-3.57661l0,-35.68847c0,-6.91688 5.8517,-12.52498 13.08092,-12.52498c7.21988,0 13.08217,5.6087 13.08217,12.52498l0,35.68847zm102.88527,-49.08538c0,1.97779 -1.66987,3.57661 -3.73055,3.57661l-18.70262,0c-2.06193,0 -3.72993,-1.59882 -3.72993,-3.57661l0,-35.68907c0,-6.91748 5.8517,-12.52558 13.08092,-12.52558c7.21988,0 13.08217,5.6081 13.08217,12.52558l0,35.68907zm102.98625,49.08538c0,1.97838 -1.67049,3.57661 -3.73055,3.57661l-18.70262,0c-2.06193,0 -3.7318,-1.59822 -3.7318,-3.57661l0,-35.68847c0,-6.91688 5.85294,-12.52498 13.08279,-12.52498c7.21988,0 13.08217,5.6087 13.08217,12.52498l0,35.68847z"/>
   </g>
   <g stroke="null"/>
   <g stroke="null"/>
   <g stroke="null"/>
   <g stroke="null"/>
   <g stroke="null"/>
   <g stroke="null"/>
   <g stroke="null"/>
   <g stroke="null"/>
   <g stroke="null"/>
   <g stroke="null"/>
   <g stroke="null"/>
   <g stroke="null"/>
   <g stroke="null"/>
   <g stroke="null"/>
   <g stroke="null"/>
  </g>
  <path stroke="#000" id="svg_23" d="m45.56248,526.73315l1430.11795,0l0,20.1102l-1430.11795,0l0,-20.1102z" stroke-width="0" fill="#000000"/>
  <path stroke="#000" id="svg_25" d="m342.57037,201.62984l1124.26257,0l0,20.60095l-1124.26257,0l0,-20.60095z" stroke-width="0" fill="#000000"/>
 </g>

</svg>