<?xml version="1.0" encoding="iso-8859-1"?>
<!-- Generator: Adobe Illustrator 19.0.0, SVG Export Plug-In . SVG Version: 6.00 Build 0)  -->
<svg version="1.1" id="Capa_1" xmlns="http://www.w3.org/2000/svg" xmlns:xlink="http://www.w3.org/1999/xlink" x="0px" y="0px"
	 viewBox="0 0 489.8 489.8" style="enable-background:new 0 0 489.8 489.8;" xml:space="preserve">
<g>
	<g>
		<g>
			<path d="M72.15,87.1c5.4,0,9.7-4.3,9.7-9.7V9.7c0-5.4-4.3-9.7-9.7-9.7c-5.4,0-9.7,4.3-9.7,9.7v67.6
				C62.45,82.8,67.05,87.1,72.15,87.1z"/>
			<path d="M146.75,87.1c5.4,0,9.7-4.3,9.7-9.7V9.7c0-5.4-4.3-9.7-9.7-9.7s-9.7,4.3-9.7,9.7v67.6
				C137.05,82.8,141.35,87.1,146.75,87.1z"/>
			<path d="M342.75,87.1c5.4,0,9.7-4.3,9.7-9.7V9.7c0-5.4-4.3-9.7-9.7-9.7c-5.4,0-9.7,4.3-9.7,9.7v67.6
				C333.05,82.8,337.25,87.1,342.75,87.1z"/>
			<path d="M417.35,87.1c5.4,0,9.7-4.3,9.7-9.7V9.7c0-5.4-4.3-9.7-9.7-9.7c-5.4,0-9.7,4.3-9.7,9.7v67.6
				C407.65,82.8,411.95,87.1,417.35,87.1z"/>
			<path d="M446.55,43.5v33.8c0,16.3-13.2,29.2-29.2,29.2c-16.3,0-29.2-13.2-29.2-29.2V43.5h-15.9v33.8c0,16.3-13.2,29.2-29.2,29.2
				c-15.9,0-29.2-13.2-29.2-29.2V43.5h-137.9v33.8c0,16.3-13.2,29.2-29.2,29.2s-29.2-13.2-29.2-29.2V43.5h-15.9v33.8
				c0,16.3-13.2,29.2-29.2,29.2s-29.2-13.2-29.2-29.2V43.5H4.85V136h480.1V43.5H446.55z"/>
			<path d="M4.85,489.8h480.1V155.9H4.85V489.8z M379.65,201.7h31.1c5.4,0,9.7,4.3,9.7,9.7s-4.3,9.7-9.7,9.7h-31.1
				c-5.4,0-9.7-4.3-9.7-9.7S374.25,201.7,379.65,201.7z M379.65,303.2h31.1c5.4,0,9.7,4.3,9.7,9.7c0,5.4-4.3,9.7-9.7,9.7h-31.1
				c-5.4,0-9.7-4.3-9.7-9.7C369.95,307.5,374.25,303.2,379.65,303.2z M379.65,404.7h31.1c5.4,0,9.7,4.3,9.7,9.7
				c0,5.4-4.3,9.7-9.7,9.7h-31.1c-5.4,0-9.7-4.3-9.7-9.7C369.95,409.4,374.25,404.7,379.65,404.7z M279.35,201.7h31.1
				c5.4,0,9.7,4.3,9.7,9.7s-4.3,9.7-9.7,9.7h-31.1c-5.4,0-9.7-4.3-9.7-9.7S273.95,201.7,279.35,201.7z M279.35,303.2h31.1
				c5.4,0,9.7,4.3,9.7,9.7c0,5.4-4.3,9.7-9.7,9.7h-31.1c-5.4,0-9.7-4.3-9.7-9.7C269.65,307.5,273.95,303.2,279.35,303.2z
				 M279.35,404.7h31.1c5.4,0,9.7,4.3,9.7,9.7c0,5.4-4.3,9.7-9.7,9.7h-31.1c-5.4,0-9.7-4.3-9.7-9.7
				C269.65,409.4,273.95,404.7,279.35,404.7z M179.05,201.7h31.1c5.4,0,9.7,4.3,9.7,9.7s-4.3,9.7-9.7,9.7h-31.1
				c-5.4,0-9.7-4.3-9.7-9.7S173.65,201.7,179.05,201.7z M179.05,303.2h31.1c5.4,0,9.7,4.3,9.7,9.7c0,5.4-4.3,9.7-9.7,9.7h-31.1
				c-5.4,0-9.7-4.3-9.7-9.7C169.35,307.5,173.65,303.2,179.05,303.2z M179.05,404.7h31.1c5.4,0,9.7,4.3,9.7,9.7
				c0,5.4-4.3,9.7-9.7,9.7h-31.1c-5.4,0-9.7-4.3-9.7-9.7C169.35,409.4,173.65,404.7,179.05,404.7z M78.75,201.7h31.1
				c5.4,0,9.7,4.3,9.7,9.7s-4.3,9.7-9.7,9.7h-31.1c-5.4,0-9.7-4.3-9.7-9.7S73.35,201.7,78.75,201.7z M78.75,303.2h31.1
				c5.4,0,9.7,4.3,9.7,9.7c0,5.4-4.3,9.7-9.7,9.7h-31.1c-5.4,0-9.7-4.3-9.7-9.7C69.05,307.5,73.35,303.2,78.75,303.2z M78.75,404.7
				h31.1c5.4,0,9.7,4.3,9.7,9.7c0,5.4-4.3,9.7-9.7,9.7h-31.1c-5.4,0-9.7-4.3-9.7-9.7C69.05,409.4,73.35,404.7,78.75,404.7z"/>
		</g>
	</g>
</g>
<g>
</g>
<g>
</g>
<g>
</g>
<g>
</g>
<g>
</g>
<g>
</g>
<g>
</g>
<g>
</g>
<g>
</g>
<g>
</g>
<g>
</g>
<g>
</g>
<g>
</g>
<g>
</g>
<g>
</g>
</svg>
