<svg id="el_nKhPRpv4n" data-name="Layer 1" xmlns="http://www.w3.org/2000/svg" viewBox="0 0 500 500"><style>@-webkit-keyframes el_XPXP6MkVCn_XzRztcN7E_Animation{0%{-webkit-transform: translate(300px, 10px);transform: translate(300px, 10px);}16.17%{-webkit-transform: translate(150px, 0px);transform: translate(150px, 0px);}53.50%{-webkit-transform: translate(50px, -30px);transform: translate(50px, -30px);}100%{-webkit-transform: translate(-300px, 0px);transform: translate(-300px, 0px);}}@keyframes el_XPXP6MkVCn_XzRztcN7E_Animation{0%{-webkit-transform: translate(300px, 10px);transform: translate(300px, 10px);}16.17%{-webkit-transform: translate(150px, 0px);transform: translate(150px, 0px);}53.50%{-webkit-transform: translate(50px, -30px);transform: translate(50px, -30px);}100%{-webkit-transform: translate(-300px, 0px);transform: translate(-300px, 0px);}}@-webkit-keyframes el_ieTj6mePyss_6CQaY3iFs_Animation{0%{-webkit-transform: translate(150px, 0px);transform: translate(150px, 0px);}100%{-webkit-transform: translate(-450px, 0px);transform: translate(-450px, 0px);}}@keyframes el_ieTj6mePyss_6CQaY3iFs_Animation{0%{-webkit-transform: translate(150px, 0px);transform: translate(150px, 0px);}100%{-webkit-transform: translate(-450px, 0px);transform: translate(-450px, 0px);}}@-webkit-keyframes el_zk_i1rG9bw__6O-EHjwy7_Animation{0%{-webkit-transform: translate(-250px, 0px);transform: translate(-250px, 0px);}100%{-webkit-transform: translate(400px, 0px);transform: translate(400px, 0px);}}@keyframes el_zk_i1rG9bw__6O-EHjwy7_Animation{0%{-webkit-transform: translate(-250px, 0px);transform: translate(-250px, 0px);}100%{-webkit-transform: translate(400px, 0px);transform: translate(400px, 0px);}}@-webkit-keyframes el_YzzdJWsbch_LqTEum1KC_Animation{0%{-webkit-transform: translate(400px, 0px);transform: translate(400px, 0px);}100%{-webkit-transform: translate(-450px, 0px);transform: translate(-450px, 0px);}}@keyframes el_YzzdJWsbch_LqTEum1KC_Animation{0%{-webkit-transform: translate(400px, 0px);transform: translate(400px, 0px);}100%{-webkit-transform: translate(-450px, 0px);transform: translate(-450px, 0px);}}@-webkit-keyframes el_y8j2_QXnT_Y_uQohYBoCT_Animation{0%{-webkit-transform: rotate(0deg);transform: rotate(0deg);}100%{-webkit-transform: rotate(360deg);transform: rotate(360deg);}}@keyframes el_y8j2_QXnT_Y_uQohYBoCT_Animation{0%{-webkit-transform: rotate(0deg);transform: rotate(0deg);}100%{-webkit-transform: rotate(360deg);transform: rotate(360deg);}}#el_nKhPRpv4n *{-webkit-animation-duration: 20s;animation-duration: 20s;-webkit-animation-iteration-count: infinite;animation-iteration-count: infinite;-webkit-animation-timing-function: cubic-bezier(0, 0, 1, 1);animation-timing-function: cubic-bezier(0, 0, 1, 1);}#el_A2CFca1jeS{fill: #9ccc76;}#el_pYa2eO4svl{fill: #9ccc76;}#el_YzzdJWsbch{fill: #f4e9ff;}#el_5xqlKQpzHk{fill: #c6c6c6;fill-rule: evenodd;}#el_IKtpMmpkWF{fill: #ef7878;fill-rule: evenodd;}#el_fVGpYqXWua{fill: #ef7878;fill-rule: evenodd;}#el_GMlgyP_IE7{fill: #f98585;}#el_ebwOEl5KuR{fill: #ff9292;fill-rule: evenodd;}#el_sCb7H5GeYi{fill: #ff9292;fill-rule: evenodd;}#el_I5MqHB_p_r{fill: #f98585;fill-rule: evenodd;}#el_Kcwzs92Nnp{fill: #ffe8c7;fill-rule: evenodd;}#el__0rwQuzTV1{fill: #f98585;fill-rule: evenodd;}#el_d2Gcowg4-u{fill: #fff2dc;fill-rule: evenodd;}#el_h-XzQEbGER{fill: #ff9292;fill-rule: evenodd;}#el_geDRHQflZSS{fill: #ff9292;fill-rule: evenodd;}#el_UYzEmQ469F2{fill: #ef7878;fill-rule: evenodd;}#el_Il0mmtJZovC{fill: #f98585;fill-rule: evenodd;}#el_gMeo6pVoV4N{fill: #dddcdb;fill-rule: evenodd;}#el_PtPeofbEaK-{fill: #f98585;fill-rule: evenodd;}#el_ZGcadLWZmFM{fill: #ff9292;fill-rule: evenodd;}#el_PXh5UVNnjYG{fill: #c6c6c6;fill-rule: evenodd;}#el_CNKgFoaadJ5{fill: #dddcdb;fill-rule: evenodd;}#el_LObhXVD3Lpb{fill: #ff9292;fill-rule: evenodd;}#el_X1fl6T8CE1X{fill: #ef7878;fill-rule: evenodd;}#el_jNwxgP3fEpm{fill: #f98585;fill-rule: evenodd;}#el_zk_i1rG9bw_{fill: #f4e9ff;}#el_kOo7uUfG27W{fill: #7c5d5d;}#el_9DTcMDKfq4-{fill: #f9d5b7;}#el_9S9hnU2KGuO{opacity: 0.12;}#el_oSISMS96l7l{fill: #ffe4ca;}#el_152l13xr8X1{fill: #725757;}#el_QP84UiT5zvo{fill: #8e7272;}#el_Ua2T8NoC0we{fill: #7c5d5d;}#el_Ak7vmkxhWS9{opacity: 0.12;}#el_8e5prPn_uhK{fill: #f9c4a7;}#el_Ejs0hkGpzC7{fill: #ffd6bb;}#el_wFs9__4UdPl{fill: #ffe4ca;}#el_3fPtriVFtRz{fill: #725757;}#el_2TR0MlT9D0d{fill: #8e7272;}#el_3yUznuZNO_U{fill: #725757;}#el_lpUPUFzriO1{fill: #7c5d5d;}#el_203z1KmsV-l{fill: #f9d5b7;}#el_DMIT5Ns33fu{fill: #4e9fa8;}#el_C2O4l93Yi1Q{fill: #afaeae;}#el_qiIKlTCs_UG{fill: #ccc;}#el_nzD8MGkkzik{-webkit-transform: translate(574.49px, 552.47px) rotate(180deg);transform: translate(574.49px, 552.47px) rotate(180deg);fill: #448d99;}#el_9gXLp_yS6GO{-webkit-transform: translate(21.87px, 563.88px) rotate(-90deg);transform: translate(21.87px, 563.88px) rotate(-90deg);fill: #448d99;}#el_MWE4AsDf77l{fill: #ffe4ca;}#el_FDLiviBrzzU{fill: #725757;}#el_zrxXjneZl2y{fill: #8e7272;}#el_1h5cH7qSNn_{fill: #725757;}#el_3WrZCECpPtv{fill: #7c5d5d;}#el_SOm13EmBKYN{fill: #f9d5b7;}#el_Xm2XMMWyqOI{fill: #4e9fa8;}#el_0ytIdh21LBD{fill: #afaeae;}#el_YGNjKFwGEV4{fill: #ccc;}#el_U2Dz6YHy02m{-webkit-transform: translate(425.5px, 552.47px) rotate(180deg);transform: translate(425.5px, 552.47px) rotate(180deg);fill: #448d99;}#el_2o5kvED0vGP{-webkit-transform: translate(-52.63px, 489.38px) rotate(-90deg);transform: translate(-52.63px, 489.38px) rotate(-90deg);fill: #448d99;}#el_NykcazN6C5J{-webkit-transform: translate(-12.01px, 615.16px) rotate(-76.72deg);transform: translate(-12.01px, 615.16px) rotate(-76.72deg);fill: #afafaf;}#el_J0IZWGSfHBQ{fill: #4e9fa8;}#el_c9bdJHnF92z{fill: #5eb3b7;}#el_6Wkopm5p04X{fill: #5eb3b7;}#el_AHtDKayXK2e{fill: #448d99;}#el_-9DNwXZSvyU{fill: #ffe4ca;}#el_UqCT4JPEjC0{fill: #4e9fa8;}#el_q1N6jm7yQnI{fill: #afaeae;}#el_rAxUpAk8730{fill: #ccc;}#el_uvgrxReU7lT{-webkit-transform: translate(609.43px, 711.57px) rotate(180deg);transform: translate(609.43px, 711.57px) rotate(180deg);fill: #448d99;}#el_1ITAAkbDK5u{-webkit-transform: translate(-37.35px, 660.9px) rotate(-90deg);transform: translate(-37.35px, 660.9px) rotate(-90deg);fill: #448d99;}#el_RDfyca3JZxV{fill: #ffe4ca;}#el_t0gue3TvbtR{fill: #4e9fa8;}#el_XCcgY1bM52A{fill: #afaeae;}#el_sOegFDf7Uoj{fill: #ccc;}#el_mTYFpOOWc6j{-webkit-transform: translate(541.59px, 711.57px) rotate(180deg);transform: translate(541.59px, 711.57px) rotate(180deg);fill: #448d99;}#el_HhBmKL9K4wl{-webkit-transform: translate(-71.27px, 626.98px) rotate(-90deg);transform: translate(-71.27px, 626.98px) rotate(-90deg);fill: #448d99;}#el___NlolCDaE8{fill: #ffe4ca;}#el_79ncOEwGqn3{fill: #4e9fa8;}#el_9gUpiQxBMQs{fill: #afaeae;}#el_v2-kfrmSTiV{fill: #ccc;}#el_1awlaJyxwlN{-webkit-transform: translate(473.75px, 711.57px) rotate(180deg);transform: translate(473.75px, 711.57px) rotate(180deg);fill: #448d99;}#el_UcxuAI29viJ{-webkit-transform: translate(-105.19px, 593.06px) rotate(-90deg);transform: translate(-105.19px, 593.06px) rotate(-90deg);fill: #448d99;}#el_F1bdpKZZXng{fill: #ffe4ca;}#el_bizjCLM5hGa{fill: #4e9fa8;}#el_Ia_L0b5Iztc{fill: #afaeae;}#el_EcIQlzCRrYT{fill: #ccc;}#el_Ow6wVovMKn8{-webkit-transform: translate(405.91px, 711.57px) rotate(180deg);transform: translate(405.91px, 711.57px) rotate(180deg);fill: #448d99;}#el_6BM3lsJj-Wh{-webkit-transform: translate(-139.11px, 559.14px) rotate(-90deg);transform: translate(-139.11px, 559.14px) rotate(-90deg);fill: #448d99;}#el_JvEnPiYbePK{fill: #ffe4ca;}#el_1d4SKoYK-PH{fill: #4e9fa8;}#el_iF1dSioE4ek{fill: #afaeae;}#el_hFg_LBC-doQ{fill: #ccc;}#el_2602m-m2JMJ{-webkit-transform: translate(338.06px, 711.57px) rotate(180deg);transform: translate(338.06px, 711.57px) rotate(180deg);fill: #448d99;}#el_zkgHPN1q-t3{-webkit-transform: translate(-173.03px, 525.22px) rotate(-90deg);transform: translate(-173.03px, 525.22px) rotate(-90deg);fill: #448d99;}#el_WzV_ArTtB2w{fill: #ffecdc;}#el_2KgE1nbUPrY{fill: #706565;}#el_Qbgh1Jt2axu{fill: #f9d5b7;}#el_0DoPWQoBwrB{fill: #eac6ac;}#el_SVBhYObV0VB{fill: #8e7272;}#el_hGaxMSA0X6a{fill: #7c5d5d;}#el_N_i4GFduWtT{fill: #ad9fbc;}#el_dwc-MifFyeI{fill: #9284a5;}#el_kICtbUV9Q1N{fill: #9284a5;}#el_cZQptQ29G40{fill: #fcf0ff;}#el_eRIhD2Eitxs{-webkit-transform: translate(-140.8px, 254.03px) rotate(-65.93deg);transform: translate(-140.8px, 254.03px) rotate(-65.93deg);fill: #9284a5;}#el_b_2YAIS2VQR{fill: #fcf0ff;}#el_i71F8peISWl{-webkit-transform: translate(-122.36px, 250.23px) rotate(-65.93deg);transform: translate(-122.36px, 250.23px) rotate(-65.93deg);fill: #9284a5;}#el_XAUGQQMMJPV{fill: #fcf0ff;}#el_jmGqvfxB7Xz{-webkit-transform: translate(-70.2px, 59.13px) rotate(-20.93deg);transform: translate(-70.2px, 59.13px) rotate(-20.93deg);fill: #9284a5;}#el_EtOm4JgLINw{fill: #fcf0ff;}#el_eBJkT7G4P5U{-webkit-transform: translate(-133.76px, 242.71px) rotate(-65.93deg);transform: translate(-133.76px, 242.71px) rotate(-65.93deg);fill: #9284a5;}#el_ATs6tb_H-dA{fill: #fcf0ff;}#el_uUkJU6gVwq9{-webkit-transform: matrix(0.93,, -0.36,, 0.36,, 0.93,, -74.67,, 58.26);transform: matrix(0.93,, -0.36,, 0.36,, 0.93,, -74.67,, 58.26);fill: #9284a5;}#el_kJ6Om3U8R9W{fill: #fcf0ff;}#el_TJ7cpHMBdK0{-webkit-transform: translate(-75.54px, 62.73px) rotate(-20.93deg);transform: translate(-75.54px, 62.73px) rotate(-20.93deg);fill: #9284a5;}#el_ZYIA0tNov7l{fill: #fcf0ff;}#el_XGi56oDYSDD{-webkit-transform: translate(-129.89px, 261.63px) rotate(-65.93deg);transform: translate(-129.89px, 261.63px) rotate(-65.93deg);fill: #9284a5;}#el_sf4MwfRvuYV{fill: #fcf0ff;}#el_Lh2NE-w1yKW{-webkit-transform: translate(-71.07px, 63.61px) rotate(-20.93deg);transform: translate(-71.07px, 63.61px) rotate(-20.93deg);fill: #9284a5;}#el_efhn15kOAP-{fill: #e0c8e8;}#el_s5a2U5Mbfcs{fill: #e0c8e8;}#el_Ply-PKV23A7{fill: #e0c8e8;}#el_w7EU08fA39_{fill: #e0c8e8;}#el_fXLFy7JkCed{fill: #e0c8e8;}#el_cAVKz62aXWd{fill: #e0c8e8;}#el_ncKgKuZBy54{fill: #e0c8e8;}#el_wgA1k87OmiP{fill: #e0c8e8;}#el_Te0E9gDz9kl{fill: #9284a5;}#el_Avhx4lMWeHl{fill: #ad9fbc;}#el_EHAEFGxqwlN{fill: #9284a5;}#el_yPMJIbFfNGU{fill: #ad9fbc;}#el_cHF2ixxC8C0{fill: #9284a5;}#el_UpJfKjmi0bq{fill: #ad9fbc;}#el_3H40igvbDkh{fill: #9284a5;}#el_jpyYGBBmmSK{fill: #ad9fbc;}#el__2hRCLHPGoW{fill: #9284a5;}#el_fn7N5LdZSHN{fill: #8abc75;}#el_j5al7EdHz3P{fill: #79b264;}#el_ieTj6mePyss{fill: #f4e9ff;}#el_y8j2_QXnT_Y_uQohYBoCT{-webkit-animation-name: el_y8j2_QXnT_Y_uQohYBoCT_Animation;animation-name: el_y8j2_QXnT_Y_uQohYBoCT_Animation;-webkit-transform-origin: 50% 50%;transform-origin: 50% 50%;transform-box: fill-box;}#el_YzzdJWsbch_LqTEum1KC{-webkit-animation-name: el_YzzdJWsbch_LqTEum1KC_Animation;animation-name: el_YzzdJWsbch_LqTEum1KC_Animation;-webkit-transform-origin: 50% 50%;transform-origin: 50% 50%;transform-box: fill-box;}#el_zk_i1rG9bw__6O-EHjwy7{-webkit-animation-name: el_zk_i1rG9bw__6O-EHjwy7_Animation;animation-name: el_zk_i1rG9bw__6O-EHjwy7_Animation;-webkit-transform-origin: 50% 50%;transform-origin: 50% 50%;transform-box: fill-box;}#el_ieTj6mePyss_6CQaY3iFs{-webkit-animation-name: el_ieTj6mePyss_6CQaY3iFs_Animation;animation-name: el_ieTj6mePyss_6CQaY3iFs_Animation;-webkit-transform-origin: 50% 50%;transform-origin: 50% 50%;transform-box: fill-box;}#el_XPXP6MkVCn_XzRztcN7E{-webkit-animation-name: el_XPXP6MkVCn_XzRztcN7E_Animation;animation-name: el_XPXP6MkVCn_XzRztcN7E_Animation;-webkit-transform-origin: 50% 50%;transform-origin: 50% 50%;transform-box: fill-box;}</style>
  <title>custom-scenery</title>
  <path d="M123.81,397.29a18.48,18.48,0,0,1,34.06,5.42H74.27C79.49,378.07,113.3,374.3,123.81,397.29Z" id="el_A2CFca1jeS"/>
  <path d="M435.13,399.15c-42.75-30.5-107.23-51.9-169.12-51.9S134.18,366.9,96.9,399.15Z" id="el_pYa2eO4svl"/>
  <g id="el_YzzdJWsbch_LqTEum1KC" data-animator-group="true" data-animator-type="0"><path d="M255.42,225.71a19.81,19.81,0,0,1,36.89-13,17.27,17.27,0,0,1,20.45-3.35,22.08,22.08,0,0,1,24.6-10.84,25.34,25.34,0,0,1,49.44,4,18.83,18.83,0,0,1,2.72-.2A19.83,19.83,0,0,1,409,225.71Z" id="el_YzzdJWsbch"/></g>
  <g id="el_XPXP6MkVCn_XzRztcN7E" data-animator-group="true" data-animator-type="0"><g id="el_XPXP6MkVCn">
    <polygon points="242.8 163.28 241.52 169.8 241.16 169.78 242.44 163.24 242.8 163.28" id="el_5xqlKQpzHk"/>
    <polygon points="223.42 137.72 239.66 177.96 239.88 177.87 223.65 137.62 223.42 137.72" id="el_IKtpMmpkWF"/>
    <polygon points="234.33 153.38 242.43 164.78 242.63 164.64 234.53 153.24 234.33 153.38" id="el_fVGpYqXWua"/>
    <rect x="243.45" y="161.66" width="3.63" height="1.47" rx="0.18" ry="0.18" id="el_GMlgyP_IE7"/>
    <polygon points="256.22 153.38 248.12 164.78 247.92 164.64 256.02 153.24 256.22 153.38" id="el_ebwOEl5KuR"/>
    <polygon points="267.13 137.72 250.9 177.96 250.67 177.87 266.9 137.62 267.13 137.72" id="el_sCb7H5GeYi"/>
    <path d="M221.34,97.8a23.92,23.92,0,0,0-6.43,20.91c2,12.65,15.89,29.33,23.27,40.1h14.19c7.37-10.77,21.27-27.45,23.27-40.1a23.92,23.92,0,0,0-6.43-20.91C258.42,87,232.13,87,221.34,97.8Z" id="el_I5MqHB_p_r"/>
    <path d="M229.24,97.8c-12.35,18.4,3.11,43.21,11.28,61H250c8.28-18,23.6-42.66,11.28-61C254.08,87,236.47,87,229.24,97.8Z" id="el_Kcwzs92Nnp"/>
    <path d="M239,97.8c-4.82,18.35,1.17,43,4.42,61h3.71c3.26-18.13,9.24-42.67,4.42-61C248.72,87,241.83,87,239,97.8Z" id="el__0rwQuzTV1"/>
    <path d="M247.13,158.81H250c8.28-18,23.6-42.66,11.28-61a19.09,19.09,0,0,0-16-8.09c2.44,0,4.87,2.7,6.28,8.09C256.37,116.15,250.38,140.77,247.13,158.81Z" id="el_d2Gcowg4-u"/>
    <path d="M245.3,158.61V89.71c7,0,8,17.67,8,24.72,0,14.2-3.68,30.27-6.18,44.18Z" id="el_h-XzQEbGER"/>
    <path d="M250,158.81h2.34c7.37-10.77,21.27-27.45,23.27-40.1,2.51-15.81-8.46-29-30.37-29a19.09,19.09,0,0,1,16,8.09C273.66,116.2,258.2,141,250,158.81Z" id="el_geDRHQflZSS"/>
    <polygon points="234.33 153.38 256.22 153.38 252.37 158.81 238.18 158.81 234.33 153.38" id="el_UYzEmQ469F2"/>
    <polygon points="245.3 153.38 256.22 153.38 252.37 158.81 245.3 158.81 245.3 153.38" id="el_Il0mmtJZovC"/>
    <polygon points="247.75 163.28 249.03 169.8 249.39 169.78 248.1 163.24 247.75 163.28" id="el_gMeo6pVoV4N"/>
    <path d="M241.16,169.76c.12,0,8.3,0,8.31.08l1.44,8.06a.08.08,0,0,1-.08.09h0c-.13,0-11.19,0-11.19-.08l1.44-8.07c0-.05,0-.08.08-.08Z" id="el_PtPeofbEaK-"/>
    <path d="M245.3,163.13v-1.47h1.59a.19.19,0,0,1,.19.18V163a.19.19,0,0,1-.19.18Z" id="el_ZGcadLWZmFM"/>
    <path d="M242.74,163c5.16,0,5.27-.2,5.37.3l.36,1.84c0,.16-.14.3-.3.3-5.37,0-6.19.2-6.09-.3l.36-1.84A.33.33,0,0,1,242.74,163Z" id="el_PXh5UVNnjYG"/>
    <path d="M245.3,165.41V163h2.51a.33.33,0,0,1,.3.3l.36,1.84c0,.16-.14.3-.3.3Z" id="el_CNKgFoaadJ5"/>
    <path d="M245.3,178v-8.23h4.09c.1,0,1.5,8,1.52,8.14a.08.08,0,0,1-.08.09H245.3Z" id="el_LObhXVD3Lpb"/>
    <polygon points="247.12 169.76 247.69 177.99 242.85 177.99 243.43 169.76 247.12 169.76" id="el_X1fl6T8CE1X"/>
    <polygon points="245.3 177.99 245.3 169.76 247.12 169.76 247.69 177.99 245.3 177.99" id="el_jNwxgP3fEpm"/>
  </g></g>
  <g id="el_zk_i1rG9bw__6O-EHjwy7" data-animator-group="true" data-animator-type="0"><path d="M195.36,175a18.64,18.64,0,0,0-12.58,4.88,26.4,26.4,0,0,0-48.89,13.84h80.2A18.72,18.72,0,0,0,195.36,175Z" id="el_zk_i1rG9bw_"/></g>
  <g id="el_tGyjtKzSqFQ">
    <polygon points="382.14 265.89 180.18 265.9 137.12 315.75 339.72 315.75 382.14 265.89" id="el_kOo7uUfG27W"/>
    <polygon points="380.42 315.75 380.42 327.45 351.3 327.45 351.29 385.7 144.76 385.7 144.76 315.75 380.42 315.75" id="el_9DTcMDKfq4-"/>
    <rect x="144.67" y="318.63" width="198.91" height="2.87" id="el_9S9hnU2KGuO"/>
    <polygon points="382.14 265.89 339.72 315.75 340.32 318.3 340.3 385.7 418.8 385.7 418.82 318.62 382.14 265.89" id="el_oSISMS96l7l"/>
    <polygon points="342.48 318.64 139.91 318.64 137.04 315.77 339.61 315.77 342.48 318.64" id="el_152l13xr8X1"/>
    <polygon points="382.05 271.7 342.48 318.64 339.61 315.77 382.13 265.89 424.83 316.06 422.26 318.62 382.05 271.7" id="el_QP84UiT5zvo"/>
    <polygon points="382.05 271.7 380.03 274.12 418.82 318.62 422.26 318.62 382.05 271.7" id="el_Ua2T8NoC0we"/>
    <polygon points="340.3 321.48 345.15 321.48 380.18 279.8 414.24 318.62 418.82 318.62 380.03 274.12 342.48 318.64 340.32 318.64 340.3 321.48" id="el_Ak7vmkxhWS9"/>
    <rect x="144.76" y="385.7" width="195.43" height="9.55" id="el_8e5prPn_uhK"/>
    <rect x="340.14" y="385.7" width="79.07" height="9.55" id="el_Ejs0hkGpzC7"/>
    <g id="el_88wUZnva-Pt">
      <g id="el_AHnbUKUR_l3">
        <polygon points="304.17 298.69 322.58 277.44 322.58 262.41 304.74 262.41 304.17 261.59 304.17 298.69" id="el_wFs9__4UdPl"/>
        <g id="el_bS1jnlhtktD">
          <polygon points="289.81 245.51 295.65 247.93 282.97 262.39 274.81 262.39 289.81 245.51" id="el_3fPtriVFtRz"/>
          <polygon points="289.71 239.7 312.35 239.71 329.29 259.52 307.5 259.52 289.71 239.7" id="el_2TR0MlT9D0d"/>
          <polygon points="304.74 262.41 326.5 262.41 329.29 259.52 307.5 259.52 304.74 262.41" id="el_3yUznuZNO_U"/>
          <polygon points="289.81 245.51 304.74 262.41 307.5 259.52 289.72 239.7 272.23 259.83 274.81 262.39 289.81 245.51" id="el_lpUPUFzriO1"/>
        </g>
        <polygon points="280.16 298.69 304.17 298.69 304.17 261.76 291.8 247.78 280.16 260.79 280.16 298.69" id="el_203z1KmsV-l"/>
      </g>
      <g id="el_5_T7aqzBZLN">
        <rect x="285.56" y="269.34" width="14.38" height="13.52" id="el_DMIT5Ns33fu"/>
        <g id="el_BU4yO0RHRQk">
          <polygon points="283.24 267.03 285.82 269.66 299.95 269.66 299.95 267.09 299.95 267.04 283.24 267.03" id="el_C2O4l93Yi1Q"/>
          <polygon points="285.81 269.62 285.81 282.84 283.23 282.82 283.23 267.05 285.81 269.62" id="el_qiIKlTCs_UG"/>
        </g>
        <rect x="285.81" y="269.72" width="2.86" height="13.04" id="el_nzD8MGkkzik"/>
        <rect x="291.44" y="263.94" width="2.86" height="14.13" id="el_9gXLp_yS6GO"/>
      </g>
    </g>
    <g id="el_dgEhW_iRF1T">
      <g id="el_t_N6_LWp1NC">
        <polygon points="229.67 298.69 248.09 277.44 248.09 262.41 230.24 262.41 229.67 261.59 229.67 298.69" id="el_MWE4AsDf77l"/>
        <g id="el_xWmrpQKYujx">
          <polygon points="215.31 245.51 221.15 247.93 208.47 262.39 200.31 262.39 215.31 245.51" id="el_FDLiviBrzzU"/>
          <polygon points="215.22 239.7 237.85 239.71 254.79 259.52 233 259.52 215.22 239.7" id="el_zrxXjneZl2y"/>
          <polygon points="230.24 262.41 252 262.41 254.79 259.52 233 259.52 230.24 262.41" id="el_1h5cH7qSNn_"/>
          <polygon points="215.31 245.51 230.24 262.41 233 259.52 215.22 239.7 197.73 259.83 200.31 262.39 215.31 245.51" id="el_3WrZCECpPtv"/>
        </g>
        <polygon points="205.66 298.69 229.67 298.69 229.67 261.76 217.3 247.78 205.66 260.79 205.66 298.69" id="el_SOm13EmBKYN"/>
      </g>
      <g id="el_mXfO_frV8m1">
        <rect x="211.06" y="269.34" width="14.38" height="13.52" id="el_Xm2XMMWyqOI"/>
        <g id="el_DMpa8T3zrVz">
          <polygon points="208.74 267.03 211.32 269.66 225.45 269.66 225.46 267.09 225.46 267.04 208.74 267.03" id="el_0ytIdh21LBD"/>
          <polygon points="211.32 269.62 211.32 282.84 208.73 282.82 208.73 267.05 211.32 269.62" id="el_YGNjKFwGEV4"/>
        </g>
        <rect x="211.32" y="269.72" width="2.86" height="13.04" id="el_U2Dz6YHy02m"/>
        <rect x="216.95" y="263.94" width="2.86" height="14.13" id="el_2o5kvED0vGP"/>
      </g>
    </g>
    <g id="el_v47-mlKtXp5">
      <circle cx="382.64" cy="315.17" r="9.55" id="el_NykcazN6C5J"/>
      <path d="M381.21,305.74a9.54,9.54,0,1,0,8.12,9.43A9.54,9.54,0,0,0,381.21,305.74Z" id="el_J0IZWGSfHBQ"/>
      <path d="M378.34,323.56l9.25-9.22,0-3.07L376.4,322.39A4.3,4.3,0,0,0,378.34,323.56Z" id="el_c9bdJHnF92z"/>
      <path d="M387.05,309.24a9.55,9.55,0,0,0-1.15-1.05l-11.62,11.62a5,5,0,0,0,.84,1.24Z" id="el_6Wkopm5p04X"/>
      <path d="M381.27,305.74a9.41,9.41,0,0,0-1.08.24,9.52,9.52,0,0,1,0,18.39,7.67,7.67,0,0,0,1.08.23,9.54,9.54,0,0,0,0-18.86Z" id="el_AHtDKayXK2e"/>
    </g>
    <g id="el_Vcvv2Z-sD0a">
      <g id="el_EUCa28lsMb-">
        <polygon points="323.18 341.97 323.18 345.17 323.18 345.45 323.18 363.84 320.27 363.84 320.27 345.45 300.69 345.45 300.69 363.84 297.79 363.84 297.79 345.45 297.79 345.17 297.79 341.97 323.18 341.97" id="el_-9DNwXZSvyU"/>
        <rect x="303.03" y="347.45" width="17.25" height="16.38" id="el_UqCT4JPEjC0"/>
        <g id="el_awB71SZydPD">
          <polygon points="300.71 345.15 303.29 347.78 320.28 347.78 320.29 345.21 320.29 345.15 300.71 345.15" id="el_q1N6jm7yQnI"/>
          <polygon points="303.28 347.74 303.28 363.83 300.69 363.8 300.69 345.17 303.28 347.74" id="el_rAxUpAk8730"/>
        </g>
        <rect x="303.28" y="347.83" width="2.86" height="15.91" id="el_uvgrxReU7lT"/>
        <rect x="310.34" y="340.63" width="2.86" height="16.99" id="el_1ITAAkbDK5u"/>
      </g>
      <g id="el_g8XfrdkOKYO">
        <polygon points="289.26 341.97 289.26 345.17 289.26 345.45 289.26 363.84 286.35 363.84 286.35 345.45 266.77 345.45 266.77 363.84 263.87 363.84 263.87 345.45 263.87 345.17 263.87 341.97 289.26 341.97" id="el_RDfyca3JZxV"/>
        <rect x="269.1" y="347.45" width="17.25" height="16.38" id="el_t0gue3TvbtR"/>
        <g id="el_Rv_IkjEEdgs">
          <polygon points="266.79 345.15 269.37 347.78 286.36 347.78 286.37 345.21 286.37 345.15 266.79 345.15" id="el_XCcgY1bM52A"/>
          <polygon points="269.36 347.74 269.36 363.83 266.77 363.8 266.77 345.17 269.36 347.74" id="el_sOegFDf7Uoj"/>
        </g>
        <rect x="269.36" y="347.83" width="2.86" height="15.91" id="el_mTYFpOOWc6j"/>
        <rect x="276.42" y="340.63" width="2.86" height="16.99" id="el_HhBmKL9K4wl"/>
      </g>
      <g id="el_MFJNdcHp_Bg">
        <polygon points="255.34 341.97 255.34 345.17 255.34 345.45 255.34 363.84 252.43 363.84 252.43 345.45 232.85 345.45 232.85 363.84 229.94 363.84 229.94 345.45 229.94 345.17 229.94 341.97 255.34 341.97" id="el___NlolCDaE8"/>
        <rect x="235.18" y="347.45" width="17.25" height="16.38" id="el_79ncOEwGqn3"/>
        <g id="el_5nvJMkZy4nR">
          <polygon points="232.87 345.15 235.44 347.78 252.44 347.78 252.45 345.21 252.45 345.15 232.87 345.15" id="el_9gUpiQxBMQs"/>
          <polygon points="235.44 347.74 235.44 363.83 232.85 363.8 232.85 345.17 235.44 347.74" id="el_v2-kfrmSTiV"/>
        </g>
        <rect x="235.44" y="347.83" width="2.86" height="15.91" id="el_1awlaJyxwlN"/>
        <rect x="242.5" y="340.63" width="2.86" height="16.99" id="el_UcxuAI29viJ"/>
      </g>
      <g id="el_nYuSxa0b5On">
        <polygon points="221.42 341.97 221.42 345.17 221.42 345.45 221.42 363.84 218.51 363.84 218.51 345.45 198.93 345.45 198.93 363.84 196.03 363.84 196.03 345.45 196.03 345.17 196.03 341.97 221.42 341.97" id="el_F1bdpKZZXng"/>
        <rect x="201.26" y="347.45" width="17.25" height="16.38" id="el_bizjCLM5hGa"/>
        <g id="el_I2vXhnhfDQR">
          <polygon points="198.94 345.15 201.53 347.78 218.52 347.78 218.53 345.21 218.53 345.15 198.94 345.15" id="el_Ia_L0b5Iztc"/>
          <polygon points="201.52 347.74 201.52 363.83 198.93 363.8 198.93 345.17 201.52 347.74" id="el_EcIQlzCRrYT"/>
        </g>
        <rect x="201.52" y="347.83" width="2.86" height="15.91" id="el_Ow6wVovMKn8"/>
        <rect x="208.58" y="340.63" width="2.86" height="16.99" id="el_6BM3lsJj-Wh"/>
      </g>
      <g id="el_SztdoZoxVjN">
        <polygon points="187.5 341.97 187.5 345.17 187.5 345.45 187.5 363.84 184.59 363.84 184.59 345.45 165.01 345.45 165.01 363.84 162.1 363.84 162.1 345.45 162.1 345.17 162.1 341.97 187.5 341.97" id="el_JvEnPiYbePK"/>
        <rect x="167.34" y="347.45" width="17.25" height="16.38" id="el_1d4SKoYK-PH"/>
        <g id="el_lHJftuHVPdc">
          <polygon points="165.02 345.15 167.6 347.78 184.6 347.78 184.6 345.21 184.6 345.15 165.02 345.15" id="el_iF1dSioE4ek"/>
          <polygon points="167.6 347.74 167.6 363.83 165.01 363.8 165.01 345.17 167.6 347.74" id="el_hFg_LBC-doQ"/>
        </g>
        <rect x="167.6" y="347.83" width="2.86" height="15.91" id="el_2602m-m2JMJ"/>
        <rect x="174.66" y="340.63" width="2.86" height="16.99" id="el_zkgHPN1q-t3"/>
      </g>
    </g>
    <g id="el_2PHXk0YEPCc">
      <rect x="359.39" y="339.95" width="43.15" height="55.36" id="el_WzV_ArTtB2w"/>
      <rect x="364.12" y="344.85" width="30.92" height="50.46" id="el_2KgE1nbUPrY"/>
      <polygon points="364.12 344.85 364.12 348.34 393.96 348.34 393.96 395.31 397.81 395.31 397.81 344.85 364.12 344.85" id="el_Qbgh1Jt2axu"/>
      <polygon points="397.81 344.85 393.96 348.34 364.12 348.34 364.12 344.85 397.81 344.85" id="el_0DoPWQoBwrB"/>
    </g>
    <rect x="312.07" y="394.9" width="115.49" height="4.66" id="el_SVBhYObV0VB"/>
    <rect x="136.09" y="394.9" width="216.81" height="4.66" id="el_hGaxMSA0X6a"/>
  </g>
  <g id="el_yhZs_JpXcAJ">
    <g id="el_1bvcCp9r1jx">
      <path d="M160.64,397.85H97.3l30.88-164.29h4.19Zm-57-5.25h50.72L129.61,245.47Z" id="el_N_i4GFduWtT"/>
      <polygon points="128.18 233.56 98.28 392.95 94.88 392.17 124.61 233.56 128.18 233.56" id="el_dwc-MifFyeI"/>
      <polygon points="129.61 245.47 154.34 392.6 148.94 392.95 128.55 251.46 129.61 245.47" id="el_kICtbUV9Q1N"/>
    </g>
    <g id="el_y8j2_QXnT_Y_uQohYBoCT" data-animator-group="true" data-animator-type="1"><g id="el_y8j2_QXnT_Y">
      <g id="el_ergBbtpxtul">
        <polygon points="122.29 236.74 126.66 238.69 118.93 267.07 106.31 261.43 122.29 236.74" id="el_cZQptQ29G40"/>
        <rect x="123.07" y="234.43" width="4.73" height="2.26" id="el_eRIhD2Eitxs"/>
      </g>
      <g id="el_nO3pp0E4qUc">
        <polygon points="135.29 218.45 130.92 216.5 138.65 188.12 151.27 193.75 135.29 218.45" id="el_b_2YAIS2VQR"/>
        <rect x="129.36" y="218.32" width="4.73" height="2.26" id="el_i71F8peISWl"/>
      </g>
      <g id="el_Nc1OMaAmSpS">
        <polygon points="126.33 216.51 121.86 218.22 107.25 192.69 120.17 187.75 126.33 216.51" id="el_XAUGQQMMJPV"/>
        <rect x="123.81" y="217.21" width="2.26" height="4.73" id="el_jmGqvfxB7Xz"/>
      </g>
      <g id="el_7GyQa-QMvBN">
        <polygon points="119.05 221.32 117.09 225.69 88.71 217.97 94.35 205.34 119.05 221.32" id="el_EtOm4JgLINw"/>
        <rect x="119.1" y="222.11" width="2.26" height="4.73" id="el_eBJkT7G4P5U"/>
      </g>
      <g id="el_eTjlYuXIbxR">
        <polygon points="117.3 229.87 119 234.34 93.47 248.95 88.53 236.03 117.3 229.87" id="el_ATs6tb_H-dA"/>
        <rect x="117.99" y="230.13" width="4.73" height="2.26" id="el_uUkJU6gVwq9"/>
      </g>
      <g id="el_ORbV2sC-PiL">
        <polygon points="130.65 238.9 135.12 237.19 149.73 262.72 136.81 267.66 130.65 238.9" id="el_kJ6Om3U8R9W"/>
        <rect x="130.91" y="233.48" width="2.26" height="4.73" id="el_TJ7cpHMBdK0"/>
      </g>
      <g id="el_VVqIhc6MZE5">
        <polygon points="137.93 234.09 139.88 229.73 168.27 237.45 162.63 250.08 137.93 234.09" id="el_ZYIA0tNov7l"/>
        <rect x="135.62" y="228.58" width="2.26" height="4.73" id="el_XGi56oDYSDD"/>
      </g>
      <g id="el_boNIQPA302W">
        <polygon points="139.68 225.54 137.97 221.08 163.5 206.47 168.44 219.38 139.68 225.54" id="el_sf4MwfRvuYV"/>
        <rect x="134.26" y="223.02" width="4.73" height="2.26" id="el_Lh2NE-w1yKW"/>
      </g>
      <polygon points="138.65 188.12 135.54 187.72 129.75 215.97 130.92 216.5 138.65 188.12" id="el_efhn15kOAP-"/>
      <polygon points="163.66 206.61 161.74 204.13 137.67 220.02 138.13 221.22 163.66 206.61" id="el_s5a2U5Mbfcs"/>
      <polygon points="168.26 237.47 168.65 234.37 140.4 228.57 139.88 229.75 168.26 237.47" id="el_Ply-PKV23A7"/>
      <polygon points="149.75 262.62 152.24 260.69 136.32 236.64 135.11 237.1 149.75 262.62" id="el_w7EU08fA39_"/>
      <polygon points="118.93 267.07 122.06 267.47 127.81 239.21 126.63 238.68 118.93 267.07" id="el_fXLFy7JkCed"/>
      <polygon points="93.44 248.94 95.36 251.43 119.42 235.51 118.95 234.3 93.44 248.94" id="el_cAVKz62aXWd"/>
      <polygon points="107.43 192.74 104.96 194.66 120.84 218.73 122.04 218.27 107.43 192.74" id="el_ncKgKuZBy54"/>
      <polygon points="88.71 217.96 88.32 221.07 116.57 226.86 117.1 225.69 88.71 217.96" id="el_wgA1k87OmiP"/>
      <path d="M131.32,221.36a7,7,0,1,0,3.52,9.18A7,7,0,0,0,131.32,221.36Zm.61,7.88a3.77,3.77,0,1,1-1.91-5A3.77,3.77,0,0,1,131.93,229.24Z" id="el_Te0E9gDz9kl"/>
    </g></g>
    <rect x="90.58" y="392.17" width="76.42" height="6.65" id="el_Avhx4lMWeHl"/>
    <rect x="80.32" y="392.17" width="10.26" height="6.65" id="el_EHAEFGxqwlN"/>
    <g id="el_F3qstbN8mXO">
      <polygon points="121.72 288.53 120.74 292.75 138.63 292.75 137.66 288.53 121.72 288.53" id="el_yPMJIbFfNGU"/>
      <polygon points="121.07 292.75 120.81 294.44 138.5 294.44 138.28 292.75 121.07 292.75" id="el_cHF2ixxC8C0"/>
    </g>
    <g id="el_YQ44aOP8hhk">
      <polygon points="116.32 319.56 115.31 323.79 143.94 323.79 142.85 319.56 116.32 319.56" id="el_UpJfKjmi0bq"/>
      <polygon points="115.59 323.79 115.31 325.47 141.1 325.47 140.86 323.79 115.59 323.79" id="el_3H40igvbDkh"/>
    </g>
    <g id="el_4ixZ6gn1Iy6">
      <polygon points="110.91 351.1 109.79 355.32 148.84 355.32 147.74 351.1 110.91 351.1" id="el_jpyYGBBmmSK"/>
      <polygon points="110.17 355.32 109.87 357.01 146.71 357.01 146.47 355.32 110.17 355.32" id="el__2hRCLHPGoW"/>
    </g>
  </g>
  <path d="M354.73,408.9v-2.7a7.72,7.72,0,0,0-7.72-7.72h0c-28.53,0-71.93-10.31-71.93-10.31S237.36,376.29,214,376.29s-61.12,11.88-61.12,11.88-43.4,10.31-71.93,10.31h-3.1a7.72,7.72,0,0,0-7.72,7.72v2.7Z" id="el_fn7N5LdZSHN"/>
  <path d="M435.6,414.29H66.4a7.64,7.64,0,0,1-7.63-7.64h0A7.64,7.64,0,0,1,66.4,399H435.6a7.64,7.64,0,0,1,7.63,7.63h0A7.64,7.64,0,0,1,435.6,414.29Z" id="el_j5al7EdHz3P"/>
  <g id="el_ieTj6mePyss_6CQaY3iFs" data-animator-group="true" data-animator-type="0"><path d="M373,161.66a9.1,9.1,0,0,1-.14-1.58,8.74,8.74,0,0,1,16.42-4.17,7.61,7.61,0,0,1,9-1.47,9.71,9.71,0,0,1,8.53-5.07,9.83,9.83,0,0,1,2.32.28A11.18,11.18,0,0,1,431,151.43a9.42,9.42,0,0,1,1.2-.08,8.73,8.73,0,0,1,8.74,8.73,9.1,9.1,0,0,1-.14,1.58Z" id="el_ieTj6mePyss"/></g>
<script>(function(){var a=document.querySelector('#el_nKhPRpv4n'),b=a.querySelectorAll('style'),c=function(d){b.forEach(function(f){var g=f.textContent;g&amp;&amp;(f.textContent=g.replace(/transform-box:[^;\r\n]*/gi,'transform-box: '+d))})};c('initial'),window.requestAnimationFrame(function(){return c('fill-box')})})();</script></svg>