<svg width="800" height="600" xmlns="http://www.w3.org/2000/svg">

 <g>
  <title>Layer 1</title>
  <rect id="svg_4" height="346" width="309" y="134" x="256" stroke="#000" fill="#ffffff"/>
  <g>
   <path d="m400,44c-141.163,0 -256,114.837 -256,256s114.837,256 256,256s256,-114.837 256,-256s-114.837,-256 -256,-256zm100.416,228.416c-4.16,4.16 -9.621,6.251 -15.083,6.251c-5.461,0 -10.923,-2.091 -15.083,-6.251l-48.917,-48.917l0,204.501c0,11.776 -9.536,21.333 -21.333,21.333s-21.333,-9.557 -21.333,-21.333l0,-204.501l-48.917,48.917c-8.341,8.341 -21.824,8.341 -30.165,0s-8.341,-21.824 0,-30.165l85.312,-85.312c1.963,-1.984 4.331,-3.541 6.955,-4.629c5.205,-2.155 11.093,-2.155 16.299,0c2.624,1.088 4.992,2.645 6.955,4.629l85.312,85.312c8.339,8.341 8.339,21.824 -0.002,30.165z"/>
  </g>
  <g/>
  <g/>
  <g/>
  <g/>
  <g/>
  <g/>
  <g/>
  <g/>
  <g/>
  <g/>
  <g/>
  <g/>
  <g/>
  <g/>
  <g/>
 </g>
</svg>